<?xml version="1.0" encoding="utf-8"?>
<!-- Generator: Adobe Illustrator 24.1.1, SVG Export Plug-In . SVG Version: 6.00 Build 0)  -->
<svg version="1.1" id="Layer_1" xmlns="http://www.w3.org/2000/svg" xmlns:xlink="http://www.w3.org/1999/xlink" x="0px" y="0px"
	 viewBox="0 0 512 512" style="enable-background: new 0 0 512 512; fill: #70757a;" xml:space="preserve">
<g>
	<path d="M56.9,28.4v28.4v0h0l0,0V28.4V0C25.5,0,0,25.5,0,56.9c0,31.4,25.5,56.9,56.9,56.9c31.4,0,56.9-25.5,56.9-56.9
		C113.8,25.5,88.3,0,56.9,0V28.4z"/>
	<path d="M256,28.4v28.4v0l0,0v0V28.4V0c-31.4,0-56.9,25.5-56.9,56.9c0,31.4,25.5,56.9,56.9,56.9c31.4,0,56.9-25.5,56.9-56.9
		C312.9,25.5,287.4,0,256,0V28.4z"/>
	<path d="M455.1,28.4v28.4v0l0,0v0V28.4V0c-31.4,0-56.9,25.5-56.9,56.9c0,31.4,25.5,56.9,56.9,56.9c31.4,0,56.9-25.5,56.9-56.9
		C512,25.5,486.5,0,455.1,0V28.4z"/>
	<path d="M56.9,227.6V256v0h0l0,0V227.6v-28.4C25.5,199.1,0,224.6,0,256c0,31.4,25.5,56.9,56.9,56.9c31.4,0,56.9-25.5,56.9-56.9
		c0-31.4-25.5-56.9-56.9-56.9V227.6z"/>
	<path d="M256,227.6V256v0l0,0v0V227.6v-28.4c-31.4,0-56.9,25.5-56.9,56.9c0,31.4,25.5,56.9,56.9,56.9c31.4,0,56.9-25.5,56.9-56.9
		c0-31.4-25.5-56.9-56.9-56.9V227.6z"/>
	<path d="M455.1,227.6V256v0l0,0v0V227.6v-28.4c-31.4,0-56.9,25.5-56.9,56.9c0,31.4,25.5,56.9,56.9,56.9c31.4,0,56.9-25.5,56.9-56.9
		c0-31.4-25.5-56.9-56.9-56.9V227.6z"/>
	<path d="M56.9,426.7v28.4v0h0l0,0V426.7v-28.4C25.5,398.2,0,423.7,0,455.1C0,486.5,25.5,512,56.9,512c31.4,0,56.9-25.5,56.9-56.9
		c0-31.4-25.5-56.9-56.9-56.9V426.7z"/>
	<path d="M256,426.7v28.4v0l0,0v0V426.7v-28.4c-31.4,0-56.9,25.5-56.9,56.9c0,31.4,25.5,56.9,56.9,56.9c31.4,0,56.9-25.5,56.9-56.9
		c0-31.4-25.5-56.9-56.9-56.9V426.7z"/>
	<path d="M455.1,426.7v28.4v0l0,0v0V426.7v-28.4c-31.4,0-56.9,25.5-56.9,56.9c0,31.4,25.5,56.9,56.9,56.9
		c31.4,0,56.9-25.5,56.9-56.9c0-31.4-25.5-56.9-56.9-56.9V426.7z"/>
</g>
</svg>
